<?xml version="1.0" standalone="no"?>
<!DOCTYPE svg PUBLIC "-//W3C//DTD SVG 20010904//EN"
 "http://www.w3.org/TR/2001/REC-SVG-20010904/DTD/svg10.dtd">
<svg version="1.0" xmlns="http://www.w3.org/2000/svg"
 width="1024.000000pt" height="1024.000000pt" viewBox="0 0 1024.000000 1024.000000"
 preserveAspectRatio="xMidYMid meet">
<metadata>
Created by potrace 1.14, written by Peter Selinger 2001-2017
</metadata>
<g transform="translate(0.000000,1024.000000) scale(0.100000,-0.100000)"
fill="#000000" stroke="none">
<path d="M2708 8416 c-4 -10 -3 -517 1 -556 1 -13 37 -15 279 -15 l277 -1 0
-749 0 -750 -275 -1 c-151 -1 -277 -2 -280 -3 -3 -1 -5 -130 -5 -288 l0 -288
25 -2 c14 0 28 -2 33 -3 10 -2 95 -2 105 0 4 2 11 2 16 1 4 -1 27 -2 50 -1 22
0 48 1 56 1 8 0 39 -2 68 -3 28 -2 52 1 52 5 0 5 4 6 10 2 5 -3 29 -5 52 -5
24 0 50 1 58 1 8 0 39 -2 68 -3 28 -2 52 1 52 5 0 5 4 6 10 2 5 -3 29 -5 52
-5 24 0 50 1 58 1 8 0 39 -2 68 -3 28 -2 52 0 52 3 0 4 17 3 38 0 20 -4 54 -4
75 -1 20 4 37 4 37 1 0 -6 36 -6 135 -1 22 1 43 1 48 0 18 -4 98 -2 103 2 3 3
19 3 37 -1 18 -4 46 -4 62 -1 17 3 46 3 65 0 19 -3 49 -3 67 1 18 3 35 4 37 1
5 -4 85 -6 104 -2 4 1 21 1 38 0 l31 -1 -1 292 -1 293 -255 0 -255 1 -1 1030
c-1 567 -2 1035 -3 1042 -1 16 -1238 16 -1243 -1z"/>
<path d="M4791 5600 c1 -2919 0 -2864 39 -3065 21 -108 93 -298 138 -365 9
-14 17 -28 17 -31 0 -16 109 -150 161 -199 174 -165 441 -289 679 -316 33 -3
69 -8 80 -11 32 -6 306 -5 360 2 27 4 59 8 70 10 279 36 546 174 710 368 28
32 55 64 60 71 38 43 151 257 160 305 2 10 10 39 19 64 16 48 18 58 35 147 5
30 13 71 17 90 12 57 17 1432 5 1439 -5 3 -166 6 -358 6 l-348 0 -1 -640 c0
-352 -4 -671 -8 -710 -17 -153 -90 -317 -183 -409 -46 -45 -142 -101 -193
-111 -98 -21 -129 -24 -212 -20 -138 6 -246 49 -333 133 -46 44 -105 130 -125
182 -7 19 -17 40 -20 45 -11 15 -39 133 -46 195 -8 71 -9 5008 -1 5016 3 4
349 7 769 8 l762 1 0 298 c1 189 -3 301 -9 305 -5 4 -513 7 -1128 7 l-1117 0
1 -2815z"/>
</g>
</svg>
