<svg width="59" height="87" viewBox="0 0 59 87" fill="none" xmlns="http://www.w3.org/2000/svg">
<g clip-path="url(#clip0)">
<path d="M22.8305 34H0.8145V26.704H7.8545V7.952H0.8145V0.655998H16.4305V26.704H22.8305V34Z" fill="#9DEDFF"/>
<path d="M26.88 0.799995H55.04V8.48H35.84V69.792C35.84 72.1813 36.4373 74.1867 37.632 75.808C38.912 77.4293 40.6613 78.24 42.88 78.24C45.184 78.24 46.9333 77.472 48.128 75.936C49.3227 74.3147 49.92 72.2667 49.92 69.792V54.56H58.88V69.28C58.88 74.656 57.4293 78.7947 54.528 81.696C51.712 84.512 47.872 85.92 43.008 85.92C38.144 85.92 34.2187 84.512 31.232 81.696C28.3307 78.7947 26.88 74.656 26.88 69.28V0.799995Z" fill="#FF6E6E"/>
</g>
<defs>
<clipPath id="clip0">
<rect width="59" height="87" fill="white"/>
</clipPath>
</defs>
</svg>
